<mxfile host="app.diagrams.net" modified="2021-02-03T07:25:18.402Z" agent="5.0 (Windows NT 10.0; Win64; x64) AppleWebKit/537.36 (KHTML, like Gecko) Chrome/88.0.4324.104 Safari/537.36" etag="bcMD7kCh-NVPjmBSSqWj" version="14.2.9" type="github">
  <diagram id="4mBtD36QY6xlYoqBJ4lx" name="Page-1">
    <mxGraphModel dx="2031" dy="1199" grid="0" gridSize="10" guides="1" tooltips="1" connect="1" arrows="1" fold="1" page="1" pageScale="1" pageWidth="1654" pageHeight="2336" math="0" shadow="0">
      <root>
        <mxCell id="0" />
        <mxCell id="1" parent="0" />
        <mxCell id="lGtcL8JOurJmEdWF8cp_-87" value="Loop" style="shape=umlFrame;whiteSpace=wrap;html=1;width=41;height=19;" parent="1" vertex="1">
          <mxGeometry x="316" y="822" width="509" height="290" as="geometry" />
        </mxCell>
        <mxCell id="lGtcL8JOurJmEdWF8cp_-117" value="Alt" style="shape=umlFrame;whiteSpace=wrap;html=1;width=49;height=15;" parent="1" vertex="1">
          <mxGeometry x="518" y="1538" width="520" height="144" as="geometry" />
        </mxCell>
        <mxCell id="lGtcL8JOurJmEdWF8cp_-48" value="内部员工&lt;br&gt;已解绑" style="shape=umlFrame;whiteSpace=wrap;html=1;width=50;height=30;" parent="1" vertex="1">
          <mxGeometry x="518" y="367" width="540" height="137" as="geometry" />
        </mxCell>
        <mxCell id="lGtcL8JOurJmEdWF8cp_-21" value="同步工具" style="shape=umlLifeline;perimeter=lifelinePerimeter;whiteSpace=wrap;html=1;container=1;collapsible=0;recursiveResize=0;outlineConnect=0;" parent="1" vertex="1">
          <mxGeometry x="340" y="130" width="100" height="480" as="geometry" />
        </mxCell>
        <mxCell id="lGtcL8JOurJmEdWF8cp_-46" value="" style="html=1;points=[];perimeter=orthogonalPerimeter;" parent="lGtcL8JOurJmEdWF8cp_-21" vertex="1">
          <mxGeometry x="45" y="70" width="10" height="60" as="geometry" />
        </mxCell>
        <mxCell id="lGtcL8JOurJmEdWF8cp_-22" value="" style="shape=umlLifeline;participant=umlActor;perimeter=lifelinePerimeter;whiteSpace=wrap;html=1;container=1;collapsible=0;recursiveResize=0;verticalAlign=top;spacingTop=36;outlineConnect=0;" parent="1" vertex="1">
          <mxGeometry x="210" y="130" width="20" height="480" as="geometry" />
        </mxCell>
        <mxCell id="lGtcL8JOurJmEdWF8cp_-47" value="" style="html=1;points=[];perimeter=orthogonalPerimeter;" parent="lGtcL8JOurJmEdWF8cp_-22" vertex="1">
          <mxGeometry x="5" y="150" width="10" height="249" as="geometry" />
        </mxCell>
        <mxCell id="lGtcL8JOurJmEdWF8cp_-23" value="微官网" style="shape=umlLifeline;perimeter=lifelinePerimeter;whiteSpace=wrap;html=1;container=1;collapsible=0;recursiveResize=0;outlineConnect=0;" parent="1" vertex="1">
          <mxGeometry x="550" y="130" width="100" height="480" as="geometry" />
        </mxCell>
        <mxCell id="lGtcL8JOurJmEdWF8cp_-27" value="" style="html=1;points=[];perimeter=orthogonalPerimeter;" parent="lGtcL8JOurJmEdWF8cp_-23" vertex="1">
          <mxGeometry x="45" y="80" width="10" height="40" as="geometry" />
        </mxCell>
        <mxCell id="lGtcL8JOurJmEdWF8cp_-35" value="" style="html=1;points=[];perimeter=orthogonalPerimeter;" parent="lGtcL8JOurJmEdWF8cp_-23" vertex="1">
          <mxGeometry x="45" y="160" width="10" height="243" as="geometry" />
        </mxCell>
        <mxCell id="lGtcL8JOurJmEdWF8cp_-41" value="" style="html=1;points=[];perimeter=orthogonalPerimeter;" parent="lGtcL8JOurJmEdWF8cp_-23" vertex="1">
          <mxGeometry x="55" y="200" width="10" height="20" as="geometry" />
        </mxCell>
        <mxCell id="lGtcL8JOurJmEdWF8cp_-42" value="获取绑定关系" style="edgeStyle=orthogonalEdgeStyle;html=1;align=left;spacingLeft=2;endArrow=block;rounded=0;entryX=1;entryY=0;" parent="lGtcL8JOurJmEdWF8cp_-23" target="lGtcL8JOurJmEdWF8cp_-41" edge="1">
          <mxGeometry relative="1" as="geometry">
            <mxPoint x="60" y="180" as="sourcePoint" />
            <Array as="points">
              <mxPoint x="85" y="180" />
              <mxPoint x="85" y="200" />
            </Array>
          </mxGeometry>
        </mxCell>
        <mxCell id="lGtcL8JOurJmEdWF8cp_-29" value="return" style="html=1;verticalAlign=bottom;endArrow=open;dashed=1;endSize=8;exitX=0;exitY=0.95;" parent="1" source="lGtcL8JOurJmEdWF8cp_-27" target="lGtcL8JOurJmEdWF8cp_-21" edge="1">
          <mxGeometry relative="1" as="geometry">
            <mxPoint x="525" y="286" as="targetPoint" />
          </mxGeometry>
        </mxCell>
        <mxCell id="lGtcL8JOurJmEdWF8cp_-28" value="解绑内部员工，Unbound=1" style="html=1;verticalAlign=bottom;endArrow=block;entryX=0;entryY=0;" parent="1" source="lGtcL8JOurJmEdWF8cp_-21" target="lGtcL8JOurJmEdWF8cp_-27" edge="1">
          <mxGeometry relative="1" as="geometry">
            <mxPoint x="525" y="210" as="sourcePoint" />
          </mxGeometry>
        </mxCell>
        <mxCell id="lGtcL8JOurJmEdWF8cp_-36" value="登录，前端请求: ShowTransformDialog" style="html=1;verticalAlign=bottom;endArrow=block;entryX=0;entryY=0;" parent="1" source="lGtcL8JOurJmEdWF8cp_-22" target="lGtcL8JOurJmEdWF8cp_-35" edge="1">
          <mxGeometry relative="1" as="geometry">
            <mxPoint x="525" y="290" as="sourcePoint" />
          </mxGeometry>
        </mxCell>
        <mxCell id="lGtcL8JOurJmEdWF8cp_-37" value="要不要弹窗" style="html=1;verticalAlign=bottom;endArrow=open;dashed=1;endSize=8;exitX=0;exitY=0.95;" parent="1" source="lGtcL8JOurJmEdWF8cp_-35" target="lGtcL8JOurJmEdWF8cp_-22" edge="1">
          <mxGeometry relative="1" as="geometry">
            <mxPoint x="525" y="366" as="targetPoint" />
          </mxGeometry>
        </mxCell>
        <mxCell id="lGtcL8JOurJmEdWF8cp_-38" value="UserPreference" style="shape=umlLifeline;perimeter=lifelinePerimeter;whiteSpace=wrap;html=1;container=1;collapsible=0;recursiveResize=0;outlineConnect=0;" parent="1" vertex="1">
          <mxGeometry x="800" y="130" width="100" height="460" as="geometry" />
        </mxCell>
        <mxCell id="lGtcL8JOurJmEdWF8cp_-43" value="" style="html=1;points=[];perimeter=orthogonalPerimeter;" parent="lGtcL8JOurJmEdWF8cp_-38" vertex="1">
          <mxGeometry x="45" y="260" width="10" height="40" as="geometry" />
        </mxCell>
        <mxCell id="lGtcL8JOurJmEdWF8cp_-44" value="GetUserPreferences" style="html=1;verticalAlign=bottom;endArrow=block;entryX=0;entryY=0;" parent="1" source="lGtcL8JOurJmEdWF8cp_-23" target="lGtcL8JOurJmEdWF8cp_-43" edge="1">
          <mxGeometry relative="1" as="geometry">
            <mxPoint x="775" y="350" as="sourcePoint" />
          </mxGeometry>
        </mxCell>
        <mxCell id="lGtcL8JOurJmEdWF8cp_-45" value="是否已经弹窗" style="html=1;verticalAlign=bottom;endArrow=open;dashed=1;endSize=8;exitX=0;exitY=0.95;" parent="1" source="lGtcL8JOurJmEdWF8cp_-43" target="lGtcL8JOurJmEdWF8cp_-23" edge="1">
          <mxGeometry relative="1" as="geometry">
            <mxPoint x="775" y="426" as="targetPoint" />
          </mxGeometry>
        </mxCell>
        <mxCell id="lGtcL8JOurJmEdWF8cp_-49" value="内部员工" style="text;html=1;align=center;verticalAlign=middle;resizable=0;points=[];autosize=1;" parent="1" vertex="1">
          <mxGeometry x="191" y="172" width="58" height="18" as="geometry" />
        </mxCell>
        <mxCell id="lGtcL8JOurJmEdWF8cp_-50" value="推荐运营中心" style="shape=umlLifeline;perimeter=lifelinePerimeter;whiteSpace=wrap;html=1;container=1;collapsible=0;recursiveResize=0;outlineConnect=0;" parent="1" vertex="1">
          <mxGeometry x="970" y="130" width="100" height="460" as="geometry" />
        </mxCell>
        <mxCell id="lGtcL8JOurJmEdWF8cp_-52" value="" style="html=1;points=[];perimeter=orthogonalPerimeter;" parent="lGtcL8JOurJmEdWF8cp_-50" vertex="1">
          <mxGeometry x="45" y="326" width="10" height="32" as="geometry" />
        </mxCell>
        <mxCell id="lGtcL8JOurJmEdWF8cp_-53" value="获取新内推地址设置" style="html=1;verticalAlign=bottom;endArrow=block;" parent="1" source="lGtcL8JOurJmEdWF8cp_-35" target="lGtcL8JOurJmEdWF8cp_-52" edge="1">
          <mxGeometry relative="1" as="geometry">
            <mxPoint x="945" y="419" as="sourcePoint" />
          </mxGeometry>
        </mxCell>
        <mxCell id="lGtcL8JOurJmEdWF8cp_-54" value="内推URL" style="html=1;verticalAlign=bottom;endArrow=open;dashed=1;endSize=8;exitX=0;exitY=0.95;" parent="1" source="lGtcL8JOurJmEdWF8cp_-52" target="lGtcL8JOurJmEdWF8cp_-35" edge="1">
          <mxGeometry relative="1" as="geometry">
            <mxPoint x="945" y="495" as="targetPoint" />
          </mxGeometry>
        </mxCell>
        <mxCell id="lGtcL8JOurJmEdWF8cp_-56" value="同步工具" style="shape=umlLifeline;perimeter=lifelinePerimeter;whiteSpace=wrap;html=1;container=1;collapsible=0;recursiveResize=0;outlineConnect=0;" parent="1" vertex="1">
          <mxGeometry x="350" y="679" width="100" height="480" as="geometry" />
        </mxCell>
        <mxCell id="lGtcL8JOurJmEdWF8cp_-57" value="" style="html=1;points=[];perimeter=orthogonalPerimeter;" parent="lGtcL8JOurJmEdWF8cp_-56" vertex="1">
          <mxGeometry x="45" y="70" width="10" height="332" as="geometry" />
        </mxCell>
        <mxCell id="lGtcL8JOurJmEdWF8cp_-60" value="DB" style="shape=umlLifeline;perimeter=lifelinePerimeter;whiteSpace=wrap;html=1;container=1;collapsible=0;recursiveResize=0;outlineConnect=0;" parent="1" vertex="1">
          <mxGeometry x="560" y="679" width="100" height="480" as="geometry" />
        </mxCell>
        <mxCell id="lGtcL8JOurJmEdWF8cp_-61" value="" style="html=1;points=[];perimeter=orthogonalPerimeter;" parent="lGtcL8JOurJmEdWF8cp_-60" vertex="1">
          <mxGeometry x="45" y="80" width="10" height="24" as="geometry" />
        </mxCell>
        <mxCell id="lGtcL8JOurJmEdWF8cp_-84" value="" style="html=1;points=[];perimeter=orthogonalPerimeter;" parent="lGtcL8JOurJmEdWF8cp_-60" vertex="1">
          <mxGeometry x="45" y="240" width="10" height="42" as="geometry" />
        </mxCell>
        <mxCell id="MURsWEKBqe32ubSYzPZa-1" value="" style="html=1;points=[];perimeter=orthogonalPerimeter;" vertex="1" parent="lGtcL8JOurJmEdWF8cp_-60">
          <mxGeometry x="45" y="314" width="10" height="41" as="geometry" />
        </mxCell>
        <mxCell id="lGtcL8JOurJmEdWF8cp_-65" value="return" style="html=1;verticalAlign=bottom;endArrow=open;dashed=1;endSize=8;exitX=0;exitY=0.95;" parent="1" source="lGtcL8JOurJmEdWF8cp_-61" target="lGtcL8JOurJmEdWF8cp_-56" edge="1">
          <mxGeometry relative="1" as="geometry">
            <mxPoint x="535" y="835" as="targetPoint" />
          </mxGeometry>
        </mxCell>
        <mxCell id="lGtcL8JOurJmEdWF8cp_-66" value="查出本租户所有内部员工" style="html=1;verticalAlign=bottom;endArrow=block;entryX=0;entryY=0;" parent="1" source="lGtcL8JOurJmEdWF8cp_-56" target="lGtcL8JOurJmEdWF8cp_-61" edge="1">
          <mxGeometry relative="1" as="geometry">
            <mxPoint x="535" y="759" as="sourcePoint" />
          </mxGeometry>
        </mxCell>
        <mxCell id="lGtcL8JOurJmEdWF8cp_-69" value="UserPreference" style="shape=umlLifeline;perimeter=lifelinePerimeter;whiteSpace=wrap;html=1;container=1;collapsible=0;recursiveResize=0;outlineConnect=0;" parent="1" vertex="1">
          <mxGeometry x="748" y="679" width="100" height="460" as="geometry" />
        </mxCell>
        <mxCell id="lGtcL8JOurJmEdWF8cp_-78" value="" style="html=1;points=[];perimeter=orthogonalPerimeter;" parent="lGtcL8JOurJmEdWF8cp_-69" vertex="1">
          <mxGeometry x="47" y="183" width="10" height="28" as="geometry" />
        </mxCell>
        <mxCell id="lGtcL8JOurJmEdWF8cp_-79" value="创建各个用户弹框记录&lt;br&gt;Value=false 未弹" style="html=1;verticalAlign=bottom;endArrow=block;entryX=0;entryY=0;" parent="1" target="lGtcL8JOurJmEdWF8cp_-78" edge="1">
          <mxGeometry relative="1" as="geometry">
            <mxPoint x="399.5" y="862" as="sourcePoint" />
          </mxGeometry>
        </mxCell>
        <mxCell id="lGtcL8JOurJmEdWF8cp_-80" value="return" style="html=1;verticalAlign=bottom;endArrow=open;dashed=1;endSize=8;exitX=0;exitY=0.95;" parent="1" source="lGtcL8JOurJmEdWF8cp_-78" edge="1">
          <mxGeometry relative="1" as="geometry">
            <mxPoint x="399.5" y="888.5999999999999" as="targetPoint" />
          </mxGeometry>
        </mxCell>
        <mxCell id="lGtcL8JOurJmEdWF8cp_-86" value="return" style="html=1;verticalAlign=bottom;endArrow=open;dashed=1;endSize=8;exitX=0;exitY=0.95;" parent="1" source="lGtcL8JOurJmEdWF8cp_-84" target="lGtcL8JOurJmEdWF8cp_-57" edge="1">
          <mxGeometry relative="1" as="geometry">
            <mxPoint x="405" y="942.6500000000001" as="targetPoint" />
          </mxGeometry>
        </mxCell>
        <mxCell id="lGtcL8JOurJmEdWF8cp_-85" value="用户解绑" style="html=1;verticalAlign=bottom;endArrow=block;entryX=0;entryY=0;" parent="1" source="lGtcL8JOurJmEdWF8cp_-57" target="lGtcL8JOurJmEdWF8cp_-84" edge="1">
          <mxGeometry relative="1" as="geometry">
            <mxPoint x="399.5" y="917" as="sourcePoint" />
          </mxGeometry>
        </mxCell>
        <mxCell id="lGtcL8JOurJmEdWF8cp_-88" value="&lt;span&gt;内部员工&lt;/span&gt;" style="text;html=1;align=center;verticalAlign=middle;resizable=0;points=[];autosize=1;" parent="1" vertex="1">
          <mxGeometry x="316" y="843" width="58" height="18" as="geometry" />
        </mxCell>
        <mxCell id="lGtcL8JOurJmEdWF8cp_-90" value="Alt" style="shape=umlFrame;whiteSpace=wrap;html=1;width=44;height=15;" parent="1" vertex="1">
          <mxGeometry x="497.5" y="1455" width="581.5" height="241" as="geometry" />
        </mxCell>
        <mxCell id="lGtcL8JOurJmEdWF8cp_-93" value="" style="shape=umlLifeline;participant=umlActor;perimeter=lifelinePerimeter;whiteSpace=wrap;html=1;container=1;collapsible=0;recursiveResize=0;verticalAlign=top;spacingTop=36;outlineConnect=0;" parent="1" vertex="1">
          <mxGeometry x="319" y="1218" width="20" height="609" as="geometry" />
        </mxCell>
        <mxCell id="lGtcL8JOurJmEdWF8cp_-94" value="" style="html=1;points=[];perimeter=orthogonalPerimeter;" parent="lGtcL8JOurJmEdWF8cp_-93" vertex="1">
          <mxGeometry x="5" y="150" width="10" height="392" as="geometry" />
        </mxCell>
        <mxCell id="lGtcL8JOurJmEdWF8cp_-95" value="微官网" style="shape=umlLifeline;perimeter=lifelinePerimeter;whiteSpace=wrap;html=1;container=1;collapsible=0;recursiveResize=0;outlineConnect=0;" parent="1" vertex="1">
          <mxGeometry x="529.5" y="1218" width="100" height="593" as="geometry" />
        </mxCell>
        <mxCell id="lGtcL8JOurJmEdWF8cp_-97" value="" style="html=1;points=[];perimeter=orthogonalPerimeter;" parent="lGtcL8JOurJmEdWF8cp_-95" vertex="1">
          <mxGeometry x="45" y="160" width="10" height="358" as="geometry" />
        </mxCell>
        <mxCell id="lGtcL8JOurJmEdWF8cp_-98" value="" style="html=1;points=[];perimeter=orthogonalPerimeter;" parent="lGtcL8JOurJmEdWF8cp_-95" vertex="1">
          <mxGeometry x="55" y="200" width="10" height="20" as="geometry" />
        </mxCell>
        <mxCell id="lGtcL8JOurJmEdWF8cp_-99" value="判断是否是已解绑的内部员工" style="edgeStyle=orthogonalEdgeStyle;html=1;align=left;spacingLeft=2;endArrow=block;rounded=0;entryX=1;entryY=0;" parent="lGtcL8JOurJmEdWF8cp_-95" target="lGtcL8JOurJmEdWF8cp_-98" edge="1">
          <mxGeometry relative="1" as="geometry">
            <mxPoint x="60" y="180" as="sourcePoint" />
            <Array as="points">
              <mxPoint x="85" y="180" />
              <mxPoint x="85" y="200" />
            </Array>
          </mxGeometry>
        </mxCell>
        <mxCell id="lGtcL8JOurJmEdWF8cp_-102" value="员工进入首页或列表页&lt;br&gt;前端请求: ShowRedirectDialog" style="html=1;verticalAlign=bottom;endArrow=block;entryX=0;entryY=0;" parent="1" source="lGtcL8JOurJmEdWF8cp_-93" target="lGtcL8JOurJmEdWF8cp_-97" edge="1">
          <mxGeometry relative="1" as="geometry">
            <mxPoint x="504.5" y="1378" as="sourcePoint" />
          </mxGeometry>
        </mxCell>
        <mxCell id="lGtcL8JOurJmEdWF8cp_-103" value="弹窗？跳转地址" style="html=1;verticalAlign=bottom;endArrow=open;dashed=1;endSize=8;exitX=0;exitY=0.95;" parent="1" source="lGtcL8JOurJmEdWF8cp_-97" target="lGtcL8JOurJmEdWF8cp_-93" edge="1">
          <mxGeometry relative="1" as="geometry">
            <mxPoint x="504.5" y="1454" as="targetPoint" />
          </mxGeometry>
        </mxCell>
        <mxCell id="lGtcL8JOurJmEdWF8cp_-104" value="UserPreference" style="shape=umlLifeline;perimeter=lifelinePerimeter;whiteSpace=wrap;html=1;container=1;collapsible=0;recursiveResize=0;outlineConnect=0;" parent="1" vertex="1">
          <mxGeometry x="779.5" y="1218" width="100" height="574" as="geometry" />
        </mxCell>
        <mxCell id="lGtcL8JOurJmEdWF8cp_-105" value="" style="html=1;points=[];perimeter=orthogonalPerimeter;" parent="lGtcL8JOurJmEdWF8cp_-104" vertex="1">
          <mxGeometry x="45" y="260" width="10" height="40" as="geometry" />
        </mxCell>
        <mxCell id="lGtcL8JOurJmEdWF8cp_-113" value="" style="html=1;points=[];perimeter=orthogonalPerimeter;" parent="lGtcL8JOurJmEdWF8cp_-104" vertex="1">
          <mxGeometry x="45" y="348" width="10" height="30" as="geometry" />
        </mxCell>
        <mxCell id="lGtcL8JOurJmEdWF8cp_-106" value="GetUserPreferences" style="html=1;verticalAlign=bottom;endArrow=block;entryX=0;entryY=0;" parent="1" source="lGtcL8JOurJmEdWF8cp_-95" target="lGtcL8JOurJmEdWF8cp_-105" edge="1">
          <mxGeometry relative="1" as="geometry">
            <mxPoint x="754.5" y="1438" as="sourcePoint" />
          </mxGeometry>
        </mxCell>
        <mxCell id="lGtcL8JOurJmEdWF8cp_-107" value="是否已经弹窗" style="html=1;verticalAlign=bottom;endArrow=open;dashed=1;endSize=8;exitX=0;exitY=0.95;" parent="1" source="lGtcL8JOurJmEdWF8cp_-105" target="lGtcL8JOurJmEdWF8cp_-95" edge="1">
          <mxGeometry relative="1" as="geometry">
            <mxPoint x="754.5" y="1514" as="targetPoint" />
          </mxGeometry>
        </mxCell>
        <mxCell id="lGtcL8JOurJmEdWF8cp_-108" value="内部员工" style="text;html=1;align=center;verticalAlign=middle;resizable=0;points=[];autosize=1;" parent="1" vertex="1">
          <mxGeometry x="300" y="1260" width="58" height="18" as="geometry" />
        </mxCell>
        <mxCell id="lGtcL8JOurJmEdWF8cp_-109" value="推荐运营中心" style="shape=umlLifeline;perimeter=lifelinePerimeter;whiteSpace=wrap;html=1;container=1;collapsible=0;recursiveResize=0;outlineConnect=0;" parent="1" vertex="1">
          <mxGeometry x="949.5" y="1218" width="100" height="567" as="geometry" />
        </mxCell>
        <mxCell id="lGtcL8JOurJmEdWF8cp_-110" value="" style="html=1;points=[];perimeter=orthogonalPerimeter;" parent="lGtcL8JOurJmEdWF8cp_-109" vertex="1">
          <mxGeometry x="45" y="409" width="10" height="28" as="geometry" />
        </mxCell>
        <mxCell id="lGtcL8JOurJmEdWF8cp_-111" value="获取新内推地址设置" style="html=1;verticalAlign=bottom;endArrow=block;" parent="1" source="lGtcL8JOurJmEdWF8cp_-97" target="lGtcL8JOurJmEdWF8cp_-110" edge="1">
          <mxGeometry relative="1" as="geometry">
            <mxPoint x="924.5" y="1507" as="sourcePoint" />
          </mxGeometry>
        </mxCell>
        <mxCell id="lGtcL8JOurJmEdWF8cp_-112" value="内推URL" style="html=1;verticalAlign=bottom;endArrow=open;dashed=1;endSize=8;exitX=0;exitY=0.95;" parent="1" source="lGtcL8JOurJmEdWF8cp_-110" target="lGtcL8JOurJmEdWF8cp_-97" edge="1">
          <mxGeometry relative="1" as="geometry">
            <mxPoint x="924.5" y="1583" as="targetPoint" />
          </mxGeometry>
        </mxCell>
        <mxCell id="lGtcL8JOurJmEdWF8cp_-115" value="" style="html=1;verticalAlign=bottom;endArrow=open;dashed=1;endSize=8;exitX=0;exitY=0.95;" parent="1" source="lGtcL8JOurJmEdWF8cp_-113" target="lGtcL8JOurJmEdWF8cp_-97" edge="1">
          <mxGeometry relative="1" as="geometry">
            <mxPoint x="760" y="1608" as="targetPoint" />
          </mxGeometry>
        </mxCell>
        <mxCell id="lGtcL8JOurJmEdWF8cp_-114" value="SetUserPreferences" style="html=1;verticalAlign=bottom;endArrow=block;entryX=0;entryY=0;" parent="1" source="lGtcL8JOurJmEdWF8cp_-97" target="lGtcL8JOurJmEdWF8cp_-113" edge="1">
          <mxGeometry relative="1" as="geometry">
            <mxPoint x="760" y="1532" as="sourcePoint" />
          </mxGeometry>
        </mxCell>
        <mxCell id="lGtcL8JOurJmEdWF8cp_-118" value="&lt;span&gt;内部员工&lt;/span&gt;&lt;br&gt;&lt;span&gt;已解绑&lt;/span&gt;" style="text;html=1;align=center;verticalAlign=middle;resizable=0;points=[];autosize=1;" parent="1" vertex="1">
          <mxGeometry x="497.5" y="1471" width="58" height="32" as="geometry" />
        </mxCell>
        <mxCell id="lGtcL8JOurJmEdWF8cp_-119" value="需弹窗" style="text;html=1;align=center;verticalAlign=middle;resizable=0;points=[];autosize=1;" parent="1" vertex="1">
          <mxGeometry x="518" y="1553" width="46" height="18" as="geometry" />
        </mxCell>
        <mxCell id="MURsWEKBqe32ubSYzPZa-3" value="return" style="html=1;verticalAlign=bottom;endArrow=open;dashed=1;endSize=8;exitX=0;exitY=0.95;" edge="1" source="MURsWEKBqe32ubSYzPZa-1" parent="1" target="lGtcL8JOurJmEdWF8cp_-57">
          <mxGeometry relative="1" as="geometry">
            <mxPoint x="535" y="1069" as="targetPoint" />
          </mxGeometry>
        </mxCell>
        <mxCell id="MURsWEKBqe32ubSYzPZa-2" value="清缓存" style="html=1;verticalAlign=bottom;endArrow=block;entryX=0;entryY=0;" edge="1" target="MURsWEKBqe32ubSYzPZa-1" parent="1" source="lGtcL8JOurJmEdWF8cp_-57">
          <mxGeometry relative="1" as="geometry">
            <mxPoint x="535" y="993" as="sourcePoint" />
          </mxGeometry>
        </mxCell>
      </root>
    </mxGraphModel>
  </diagram>
</mxfile>
